# xmcd CD database file
#
# Track frame offsets:
#	150
#	24343
#	33829
#	52207
#	62311
#	80345
#	101802
#	121321
#	127730
#	143354
#	162263
#	180133
#	202515
#	219410
#	236417
#
# Disc length: 3292 seconds
#
# Revision: 0
# Processed by: cddbd v1.5.1PL0 Copyright (c) Steve Scherf et al.
# Submitted via: CDex 1.50
#
DISCID=ad0cda0f
DTITLE=The Senior Swingers - Music of our young hearts
DYEAR=2004
DGENRE=Jazz
TTITLE0=Autumns Leaves - J. Kosma
TTITLE1=Sonny Boy - G. de Sliva
TTITLE2=Wonderful World - G. Weiss
TTITLE3=Don't get around much anymore - D. Ellington
TTITLE4=Misty - E. Garner
TTITLE5=Stormy Weather - H. Arlen
TTITLE6=Stompin' at the Savoy - E. Sampson
TTITLE7=Chattanooga Choo Choo - J. Garland
TTITLE8=Take the A Train - B. Strayhorn
TTITLE9=Moon Glow - W. Hudson
TTITLE10=On the sunny side of the street - J. McHugh
TTITLE11=Over the Rainbow - H. Arlen
TTITLE12=Pennies from Heaven - A. Johnston
TTITLE13=Love me or leave me - W. Donaldson
TTITLE14=Hallo, Dolly - J. Herman
EXTD=YEAR: 2004
EXTT0=
EXTT1=
EXTT2=
EXTT3=
EXTT4=
EXTT5=
EXTT6=
EXTT7=
EXTT8=
EXTT9=
EXTT10=
EXTT11=
EXTT12=
EXTT13=
EXTT14=
PLAYORDER=
